<svg xmlns="http://www.w3.org/2000/svg" viewBox="0 0 1200 1200">
  <defs>
    <linearGradient id="bg" x1="0" y1="0" x2="1" y2="1">
      <stop offset="0" stop-color="#18070f"/>
      <stop offset=".45" stop-color="#711f43"/>
      <stop offset="1" stop-color="#ff7a5e"/>
    </linearGradient>
    <radialGradient id="halo" cx="50%" cy="45%" r="50%">
      <stop offset="0" stop-color="#fff6df" stop-opacity=".95"/>
      <stop offset=".22" stop-color="#ffceb6" stop-opacity=".72"/>
      <stop offset=".64" stop-color="#ff547f" stop-opacity=".18"/>
      <stop offset="1" stop-color="#1b0710" stop-opacity="0"/>
    </radialGradient>
    <filter id="blur"><feGaussianBlur stdDeviation="28"/></filter>
    <filter id="grain" x="-20%" y="-20%" width="140%" height="140%">
      <feTurbulence type="fractalNoise" baseFrequency=".82" numOctaves="3" seed="4" result="n"/>
      <feColorMatrix in="n" values="1 0 0 0 0 0 1 0 0 0 0 0 1 0 0 0 0 0 .18 0"/>
      <feBlend mode="soft-light" in2="SourceGraphic"/>
    </filter>
  </defs>
  <rect width="1200" height="1200" fill="url(#bg)"/>
  <circle cx="580" cy="500" r="430" fill="url(#halo)"/>
  <g fill="none" stroke-linecap="round" filter="url(#blur)" opacity=".85">
    <path d="M-100 880 C220 620 360 850 640 540 S1040 300 1320 80" stroke="#ffcccf" stroke-width="92"/>
    <path d="M-80 1010 C260 790 380 970 700 660 S1080 450 1260 260" stroke="#ff4f91" stroke-width="68"/>
  </g>
  <g opacity=".72">
    <ellipse cx="600" cy="560" rx="295" ry="420" fill="#17070f" transform="rotate(12 600 560)"/>
    <ellipse cx="635" cy="520" rx="210" ry="330" fill="#ff8a86" opacity=".42" transform="rotate(12 635 520)"/>
  </g>
  <g fill="none" stroke="#fff8ef" stroke-opacity=".62">
    <path d="M170 210 L1030 1030" stroke-width="2"/>
    <path d="M220 160 L1080 1020" stroke-width="1"/>
    <circle cx="610" cy="560" r="360" stroke-width="3"/>
    <circle cx="610" cy="560" r="388" stroke-width="1" stroke-dasharray="4 18"/>
  </g>
  <rect width="1200" height="1200" filter="url(#grain)" opacity=".34"/>
  <text x="86" y="108" fill="#fff7ee" font-family="Arial,Helvetica,sans-serif" font-size="30" letter-spacing="12">NOW / 01</text>
  <text x="86" y="1080" fill="#fff7ee" font-family="Arial,Helvetica,sans-serif" font-size="94" font-weight="700" letter-spacing="-4">AFTERIMAGE</text>
  <text x="92" y="1128" fill="#fff7ee" fill-opacity=".66" font-family="Arial,Helvetica,sans-serif" font-size="24" letter-spacing="8">RECENT OBSESSION</text>
</svg>
